<?xml version="1.0" encoding="UTF-8"?>
<svg id="Camada_2" data-name="Camada 2" xmlns="http://www.w3.org/2000/svg" viewBox="0 0 156.61 393.88">
  <defs>
    <style>
      .cls-1 {
        fill: #0eaac3;
      }

      .cls-1, .cls-2, .cls-3, .cls-4, .cls-5, .cls-6, .cls-7, .cls-8, .cls-9, .cls-10, .cls-11, .cls-12, .cls-13, .cls-14, .cls-15, .cls-16, .cls-17, .cls-18, .cls-19, .cls-20, .cls-21, .cls-22, .cls-23 {
        stroke-width: 0px;
      }

      .cls-2 {
        fill: #2eaca1;
      }

      .cls-3 {
        fill: #2c849d;
      }

      .cls-4 {
        fill: #1e6294;
      }

      .cls-5 {
        fill: #0bb5c0;
      }

      .cls-6 {
        fill: #248394;
      }

      .cls-7 {
        fill: #2e7ea1;
      }

      .cls-8 {
        fill: #2f9197;
      }

      .cls-9 {
        fill: #238095;
      }

      .cls-10 {
        fill: #1f8ac0;
      }

      .cls-11 {
        fill: #0eadc2;
      }

      .cls-12 {
        fill: #268589;
      }

      .cls-13 {
        fill: #2a829e;
      }

      .cls-14 {
        fill: #24799b;
      }

      .cls-15 {
        fill: #0bb0c3;
      }

      .cls-16 {
        fill: #207793;
      }

      .cls-17 {
        fill: #2995a6;
      }

      .cls-18 {
        fill: #0eb8c1;
      }

      .cls-19 {
        fill: #15bebb;
      }

      .cls-20 {
        fill: #10c8bb;
      }

      .cls-21 {
        fill: #149cc3;
      }

      .cls-22 {
        fill: #217796;
      }

      .cls-23 {
        fill: #22578a;
      }
    </style>
  </defs>
  <g id="Camada_1-2" data-name="Camada 1">
    <g>
      <path class="cls-15" d="M132.49,306.01c.62.61,1.25,1.22,1.87,1.83.94,2.09,1.88,4.18,2.82,6.28-1.19.16-2.37.33-3.68.51.98,2.49,1.94,4.41,2.48,6.45.81,3.02-4.26,16.74-6.86,19.1v-.04c-.31-.68-.64-1.36-.96-2.04l.02.03c-.31-.67-.61-1.34-.92-2.01-1.16-1.97-2.32-3.94-3.49-5.91-1.81-5.08-3.99-9.87-9.48-12.05-.39-.38-.79-.76-1.18-1.14-.61-.6-1.23-1.2-1.84-1.8-.39-.41-.78-.82-1.17-1.23-.67-.63-1.35-1.25-2.02-1.88-.34.03-.66-.03-.95-.21-.58-.54-1.16-1.09-1.74-1.63-.24-.02-.37-.14-.38-.38-1.11-1.12-2.03-2.62-3.37-3.31-7.61-3.93-15.29-7.72-23.02-11.41-1.98-.95-4.23-1.34-6.36-1.99-25.52-9.88-47.4-24.32-61.16-48.91-.25-1.28-.24-2.68-.79-3.82-4.41-9.17-7.05-18.64-7.83-28.94-1.17-15.35,0-30.13,6.61-44.14,3.73-7.9,7.94-15.57,11.93-23.34,1.22-2.02,2.43-4.05,3.65-6.07,1.49-1,2.99-2.01,4.48-3.01-.77,3.31-.49,7.6-2.51,9.73-4.55,4.82-4.23,10.11-3.53,15.67,1.03,8.14-.55,12.78-7.03,15.3,1.57.72,2.73.89,3.28,1.57,2.66,3.28,5.27,6.62,7.66,10.1,1.43,2.08,2.38,4.48,3.63,6.69,2.8,4.96,7.36,9.67,8.05,14.9.85,6.42,4,10.6,7.7,15.01.2.24.27.59.67,1.48-.94.39-2.12.88-3.29,1.36.21.51.42,1.03.63,1.54,2.03.84,4.06,1.68,6.45,2.67-1.03,3.79,5.69,6.57,1.73,11.29-.19.23.28,1.37.73,1.72,3.01,2.35,6.04,4.7,9.22,6.81.52.35,1.82-.47,2.75-.76,1.06.59,2.12,1.18,3.18,1.77,0,0-.05,0-.05,0,1.67,1.7,3.34,3.39,5.01,5.09,0,0-.07-.08-.07-.08.37.32.75.65,1.12.97,0,0-.04-.05-.04-.05.58.45,1.15.9,1.73,1.34h0c1.5,1.32,2.99,2.64,4.49,3.96.33.04.52.22.56.56,1.39,1.11,2.78,2.21,4.16,3.32,0,0-.1-.05-.1-.05,2.01,1.37,4.02,2.75,6.03,4.12,0,0-.08-.04-.08-.04.38.33.76.65,1.14.98,0,0-.03-.1-.03-.09,1.01.67,2.03,1.34,3.04,2.01,0,0-.07,0-.07.01.63.4,1.26.8,1.89,1.19,0,0,.01,0,.01,0,1.55,1.35,3.1,2.7,4.65,4.06,3.42,2.34,6.84,4.69,10.26,7.03.46.24.92.49,1.38.73,0,0-.18-.02-.18-.02,1.36,1.01,2.73,2.01,4.09,3.02,0,0-.1,0-.1,0,1.31,1.08,2.61,2.15,3.92,3.22,0,0-.06-.05-.06-.05,2.02,2.01,4.04,4.01,6.07,6.02,0,0-.05-.04-.05-.04.35.35.69.7,1.04,1.06l-.03-.04c.77.92,1.54,1.85,2.3,2.77,0,0-.04.02-.05.02.66,1.06,1.33,2.13,2,3.19Z"/>
      <path class="cls-5" d="M65.31,250.03c-.94.28-2.23,1.1-2.75.76-3.18-2.11-6.21-4.45-9.22-6.81-.45-.35-.93-1.5-.73-1.72,3.96-4.72-2.76-7.5-1.73-11.29-2.4-.99-4.42-1.83-6.45-2.67-.21-.51-.42-1.03-.63-1.54,1.18-.49,2.35-.97,3.29-1.36-.39-.89-.47-1.24-.67-1.48-3.7-4.41-6.85-8.59-7.7-15.01-.69-5.23-5.25-9.94-8.05-14.9-1.25-2.21-2.2-4.61-3.63-6.69-2.39-3.48-5-6.82-7.66-10.1-.55-.67-1.71-.85-3.28-1.57,6.48-2.52,8.05-7.16,7.03-15.3-.7-5.56-1.02-10.85,3.53-15.67,2.01-2.13,1.74-6.42,2.51-9.73,1.49-1.97,3.02-3.91,4.47-5.92,2.18-3.03,4.3-6.1,6.44-9.16,0,0,0,.12,0,.12.34-.37.69-.75,1.03-1.12,0,0-.08.09-.08.09.35-.37.71-.73,1.06-1.1,0,0-.07.08-.07.08.36-.36.72-.72,1.07-1.08,0,0-.08.06-.08.06,4.66-4.42,9.4-8.77,13.94-13.31,1.31-1.31,2.08-3.17,3.1-4.78,0,0,.03.18.03.18.32-.47.64-.93.97-1.4.35-.2.71-.4,1.06-.6,3.49.08,5.24-1.53,5.01-5.1,0,0-.06.04-.06.04,2.53-1.27,5.7-1.97,7.46-3.93,5.06-5.65,4.84-5.85,9.87-.25.62.69,1.25,1.38,1.88,2.07l1.36-.35c-.19-2.03-.39-4.06-.62-6.49,1.04.47,2.07.64,2.64,1.24,3.49,3.64,6.79,7.45,10.31,11.06,5.6,5.73,5.65,5.68,12.4,1,.2-.14.63.07,1.38.17.16,1.13.35,2.36.53,3.6h-.01c-.33.68-.66,1.34-.98,2.01h0c-.33.67-.66,1.33-.99,2v.02c-.02.65-.04,1.3-.05,1.95-.32.67-.64,1.35-.96,2.02l-1,1.01h0c-.33.67-.66,1.34-.99,2,0,0,0,.01,0,.01-.33.68-.66,1.36-.99,2.04-2,3.32-4,6.63-6,9.95-.34.34-.68.67-1.02,1.01,0,0,0,0,0,0-.33.33-.66.66-.98,1,0,0,0,.02,0,.02-.34.66-.68,1.32-1.02,1.97-3.97,4.69-7.93,9.37-11.9,14.06-.36.32-.71.63-1.07.95,0,0,0,.03,0,.03-.13.08-.38.2-.37.24.08.24.22.47.34.7-1.95,2.74-3.9,5.48-5.85,8.22,0,0,.05-.11.05-.11-.34.38-.69.76-1.03,1.15,0,0,.11.03.11.03-3.37,4.31-6.75,8.62-10.12,12.93,0,0,.03-.1.02-.1-1.15,1.11-2.63,2.04-3.38,3.37-3.07,5.48-6.27,10.94-8.78,16.68-5.15,11.81-6.42,24.17-4.12,36.88-1.27,4.02-2.6,8.06,2.13,10.91v.02c.32.34.64.69.96,1.03.67,1.65,1.34,3.3,2.02,4.96-1.16,2.25-1.7,4.19,2.01,3.98v.04c.34.34.67.67,1.01,1.01.32.34.64.68.96,1.02.34.66.68,1.32,1.01,1.99.74.29,1.47.57,2.21.86,0,0-.03-.06-.03-.06-.03.72-.06,1.44-.09,2.17Z"/>
      <path class="cls-20" d="M107.18,150.91c5.49-6.94,11.05-13.82,16.41-20.86,1.62-2.13,2.7-4.67,4.02-7.02,2.55-5.08,5.62-9.97,7.53-15.28,2.29-6.4,3.6-13.16,5.33-19.76,4.48,8.82,8.15,17.71,11.09,26.83,7.54,23.41,3.97,45.21-10.3,65.24-.68,1.01-1.35,2.03-2.03,3.04-.64.66-1.28,1.33-1.92,1.99-1-1.71-1.92-3.47-3.01-5.12-1.12-1.7-2.06-4.01-3.69-4.8-9.56-4.66-16.25-11.66-19.67-21.83-.37-1.11-2.47-1.63-3.76-2.43Z"/>
      <path class="cls-11" d="M114.26,100.06c-.18-1.24-.36-2.48-.53-3.6-.76-.1-1.19-.31-1.38-.17-6.75,4.68-6.8,4.74-12.4-1-3.52-3.6-6.83-7.42-10.31-11.06-.58-.6-1.6-.77-2.64-1.24.23,2.43.43,4.46.62,6.49l-1.36.35c-.63-.69-1.26-1.37-1.88-2.07-5.03-5.6-4.81-5.4-9.87.25-1.76,1.96-4.93,2.66-7.46,3.93,1.54-2.33,3.08-4.66,4.63-6.99,1.07-.72,2.47-1.22,3.15-2.21,9.02-13.2,15.76-27.42,16.26-43.65.33-10.72-.63-21.48-1.02-32.34,2.1,3.01,4.16,5.96,6.22,8.91,1.01,1.29,2.02,2.57,3.03,3.86.68,1.15,1.37,2.29,2.05,3.43,0,0-.04-.03-.04-.03.69,1.33,1.38,2.66,2.08,4,0,0,.04-.05.04-.05.43,1.39.6,2.94,1.33,4.15,7.32,12.24,12.22,25.34,13.78,39.55,1.12,10.15-.33,20.02-4.28,29.49Z"/>
      <path class="cls-18" d="M107.18,150.91c1.3.8,3.39,1.32,3.76,2.43,3.42,10.17,10.11,17.17,19.67,21.83,1.63.79,2.57,3.1,3.69,4.8,1.09,1.65,2.01,3.41,3.01,5.12-1.64,3.05-3.27,6.11-4.91,9.16,0,0,.02-.07.02-.07-.32.39-.63.77-.95,1.16,0,0,.05-.04.05-.04-1.06,1.36-2.12,2.72-3.18,4.07-2.42,3.56-4.84,7.12-7.26,10.67-.95-1.37-2.01-2.68-2.82-4.13-.54-.96-.41-2.56-1.14-3.1-6.61-4.82-13.33-9.49-20.06-14.14-.62-.43-1.86-.85-2.3-.54-4.23,2.94-8.34-.62-12.49-.11,5.78-13.5,14.16-25.29,23.95-36.13.29-.29.58-.58.87-.87l.07-.13Z"/>
      <path class="cls-1" d="M82.29,188.04c4.15-.52,8.25,3.05,12.49.11.44-.31,1.68.11,2.3.54,6.73,4.65,13.45,9.32,20.06,14.14.74.54.6,2.14,1.14,3.1.82,1.45,1.87,2.76,2.82,4.13-.94,1.39-1.88,2.79-2.82,4.18-.13.03-.25.06-.38.1.07.18.14.36.21.54-.26.47-.53.93-.79,1.4-1.35,2.6-2.71,5.21-4.07,7.81-1.75-.25-3.73-.07-5.22-.83-3.63-1.85-6.95-4.31-10.56-6.21-5.99-3.13-12.11-6.01-18.17-9,.22-1.96.52-3.92.65-5.89.18-2.69.24-5.38.35-8.08.66-2.02,1.33-4.03,1.99-6.05Z"/>
      <path class="cls-10" d="M114.97,252.08c3.76,8.16,7.53,16.32,11.29,24.48l-.86.86c-2.43-1.64-4.86-3.28-7.29-4.92-1.37-1.07-2.75-2.14-4.13-3.21,0,0,.15-.04.15-.04-1.69-1.34-3.38-2.68-5.07-4.02,0,0-.02.05-.01.05-2-1.71-4.01-3.41-6.01-5.12,0,0,.15,0,.15,0-.57-.66-1.15-1.33-1.72-1.99-3.75-4.32-7.5-8.64-11.24-12.95-1.37-3.03-2.75-6.07-4.12-9.11,5.02.67,10.05,1.28,15.06,2.06.85.13,1.85.82,2.32,1.55,2.11,3.27,5.2,3.7,8.65,3.33l2.84,9.03Z"/>
      <path class="cls-2" d="M132.41,194.26c1.64-3.05,3.27-6.11,4.91-9.16.64-.66,1.28-1.33,1.92-1.99.67-1.01,1.35-2.03,2.03-3.04,14.28-20.03,17.85-41.83,10.3-65.24-2.94-9.12-6.61-18.01-11.09-26.83-1.73,6.6-3.04,13.36-5.33,19.76-1.9,5.31-4.97,10.21-7.53,15.28,5.98-12.71,10.22-25.94,11.45-40.58,24.78,45.23,24.01,76.47-6.65,111.8Z"/>
      <path class="cls-17" d="M114.26,100.06c3.94-9.46,5.39-19.33,4.28-29.49-1.56-14.21-6.46-27.31-13.78-39.55-.73-1.21-.9-2.76-1.33-4.15,15.13,23.92,22.76,49,11.29,76.76-7.67,18.55-20.44,33.52-34.34,47.64,1.95-2.74,3.9-5.48,5.85-8.22.03-.31.04-.62.03-.94,0,0,0-.03,0-.03.36-.32.71-.63,1.07-.95,3.97-4.69,7.93-9.37,11.9-14.06.34-.66.68-1.32,1.02-1.97,0,0,0-.02,0-.02.33-.33.66-.66.98-1,0,0,0,0,0,0,.34-.34.68-.67,1.02-1.01,2-3.32,4-6.63,6-9.95.33-.68.66-1.36,1-2.04,0,0,0-.01,0-.01.33-.66.66-1.32.99-1.99,0,0,0-.01,0-.01.33-.34.67-.67,1-1.01.32-.67.64-1.35.96-2.02.01-.65.03-1.3.04-1.95,0,0,.01-.02.01-.02.33-.66.66-1.32.99-1.99,0,0,0-.01,0-.01.33-.67.66-1.33.98-2,0,0,.01-.01.01-.01Z"/>
      <path class="cls-16" d="M21.03,144.04c-3.99,7.77-8.2,15.44-11.93,23.34-6.62,14.01-7.79,28.79-6.61,44.14.79,10.31,3.42,19.77,7.83,28.94.55,1.14.54,2.55.79,3.82-6.65-10.08-9.6-21.4-10.71-33.21-2.27-24.08,5.4-45.45,18.37-65.27.49-.76,1.49-1.18,2.26-1.76Z"/>
      <path class="cls-13" d="M96.28,15.67c-2.06-2.95-4.12-5.9-6.22-8.91.39,10.85,1.35,21.61,1.02,32.34-.5,16.24-7.23,30.45-16.26,43.65-.68.99-2.08,1.48-3.15,2.21,4.18-7.51,8.9-14.78,12.43-22.58,6.93-15.36,6.34-31.67,4.65-47.98-.47-4.59-1.01-9.17-1.51-13.76.43-.21.86-.42,1.29-.63,2.58,5.22,5.17,10.44,7.75,15.67Z"/>
      <path class="cls-17" d="M62.2,245.08c-.32-.34-.64-.68-.96-1.02-.33-.34-.67-.67-1-1.01,0,0,0-.04,0-.04-.67-1.33-1.34-2.66-2.01-3.98-.67-1.65-1.34-3.3-2.02-4.96-.32-.34-.64-.69-.96-1.03,0,0,0-.02,0-.02-.71-3.64-1.42-7.28-2.13-10.92-2.29-12.7-1.03-25.07,4.12-36.88,2.51-5.75,5.71-11.2,8.78-16.68.75-1.34,2.23-2.26,3.38-3.37-3.49,6.56-7.52,12.89-10.38,19.72-8.62,20.61-7.4,40.7,4.44,59.9-.12.13-.25.26-.37.39-.3-.04-.6-.07-.9-.09Z"/>
      <path class="cls-8" d="M137.19,314.11c-.94-2.09-1.88-4.18-2.82-6.28,6.16,6.75,9.01,15.05,10.29,23.8,2.05,14.01-.44,27.13-9.26,38.62,0,0-.21-.19-.21-.19.22-.62.33-1.3.66-1.85,10.71-17.79,11.43-35.81,1.34-54.1Z"/>
      <path class="cls-8" d="M124.16,384.05c-3.69,3.23-7.37,6.45-11.23,9.83,4.91-9.58,9.58-18.69,14.26-27.8,0,0,.47,0,.47,0,0,0,.47-.01.47-.01-2.29,6.19-4.58,12.37-6.89,18.59.76-.17,1.85-.4,2.93-.64,0,0,0,.02,0,.02Z"/>
      <path class="cls-14" d="M72.27,293.19c2.13.65,4.38,1.04,6.36,1.99,7.73,3.69,15.41,7.48,23.02,11.41,1.34.69,2.26,2.19,3.37,3.31-3.95-2.03-7.9-4.06-11.86-6.08-6.96-3.55-13.93-7.09-20.89-10.63Z"/>
      <path class="cls-4" d="M86.11,236.11c1.37,3.04,2.75,6.07,4.12,9.1-6.33-5.77-8.49-13.66-10.84-21.43-.37-1.24-.41-2.58-.6-3.87.38-.61.76-1.21,1.13-1.82,2.06,6.01,4.13,12.01,6.19,18.02Z"/>
      <path class="cls-7" d="M114.97,252.08c-.95-3.01-1.89-6.02-2.83-9.03.37-6.32.74-12.64,1.11-18.96,1.36-2.61,2.71-5.21,4.07-7.81-.24,1.46-.28,2.98-.75,4.35-3.54,10.35-4.23,20.81-1.59,31.46Z"/>
      <path class="cls-12" d="M128.13,366.07h-.47s-.47,0-.47,0c3.31-12.33,1.89-24.16-3.83-35.51.11-.16.25-.28.42-.36,1.16,1.97,2.32,3.94,3.49,5.91.31.67.61,1.34.92,2.01,0,0-.02-.03-.02-.03.33.68.65,1.36.98,2.04,0,0-.01.04-.01.04,1.16,8.69,2.25,17.38-1.01,25.9Z"/>
      <path class="cls-9" d="M40.07,119.87c-2.14,3.05-4.26,6.13-6.44,9.16-1.44,2.01-2.98,3.95-4.47,5.92-1.49,1-2.99,2.01-4.48,3.01,5.13-6.03,10.26-12.06,15.39-18.09Z"/>
      <path class="cls-6" d="M60.05,98.82c-1.02,1.61-1.78,3.47-3.1,4.78-4.54,4.54-9.28,8.89-13.94,13.31,5.68-6.03,11.36-12.06,17.04-18.09Z"/>
      <path class="cls-22" d="M79.92,218.1c-.38.61-.76,1.21-1.13,1.82-1.68-8.74-1.04-17.34,1.51-25.83-.11,2.69-.17,5.39-.35,8.08-.13,1.97-.43,3.93-.65,5.89.21,3.35.41,6.7.62,10.05Z"/>
      <path class="cls-17" d="M69.39,165.26c3.37-4.31,6.74-8.62,10.12-12.93-3.37,4.31-6.74,8.62-10.12,12.93Z"/>
      <path class="cls-14" d="M123.78,330.2c-.17.08-.32.2-.42.36-3.02-4.14-6.04-8.27-9.06-12.41,5.5,2.18,7.67,6.97,9.48,12.05Z"/>
      <path class="cls-8" d="M131.5,375.38c-2.45,2.89-4.89,5.78-7.34,8.67,0,0,0-.02,0-.02,2.34-2.98,4.69-5.97,7.03-8.95l.3.3Z"/>
      <path class="cls-3" d="M127.27,299.05c-2.02-2.01-4.04-4.01-6.07-6.02,2.02,2.01,4.04,4.01,6.07,6.02Z"/>
      <path class="cls-23" d="M103.04,260.15c2,1.71,4.01,3.41,6.01,5.12-2-1.71-4.01-3.41-6.01-5.12Z"/>
      <path class="cls-11" d="M67.1,91.9c.24,3.57-1.52,5.19-5.01,5.1l5.01-5.1Z"/>
      <path class="cls-17" d="M73.45,256.89c-1.67-1.7-3.34-3.39-5.01-5.09,1.67,1.69,3.34,3.39,5.01,5.09Z"/>
      <path class="cls-17" d="M91.34,270.99c-2.01-1.37-4.02-2.74-6.03-4.12,2.01,1.37,4.02,2.74,6.03,4.12Z"/>
      <path class="cls-17" d="M101.89,279.1c-1.55-1.35-3.1-2.7-4.65-4.06,1.55,1.35,3.1,2.7,4.65,4.06Z"/>
      <path class="cls-23" d="M109.06,265.22c1.69,1.34,3.38,2.68,5.07,4.02-1.69-1.34-3.38-2.68-5.07-4.02Z"/>
      <path class="cls-17" d="M80.68,263.04c-1.5-1.32-2.99-2.63-4.49-3.95,1.5,1.32,2.99,2.63,4.49,3.95Z"/>
      <path class="cls-3" d="M117.45,289.86c-1.36-1.01-2.73-2.01-4.09-3.02,1.36,1.01,2.73,2.01,4.09,3.02Z"/>
      <path class="cls-17" d="M65.31,250.03c.03-.72.06-1.44.09-2.17,1.03,1.31,2.06,2.63,3.1,3.94-1.06-.59-2.12-1.18-3.18-1.77Z"/>
      <path class="cls-23" d="M113.99,269.28c1.38,1.07,2.75,2.14,4.13,3.21-1.38-1.07-2.75-2.14-4.13-3.21Z"/>
      <path class="cls-17" d="M85.4,266.92c-1.39-1.11-2.78-2.21-4.16-3.32,1.39,1.1,2.78,2.21,4.16,3.32Z"/>
      <path class="cls-2" d="M128.36,199.38c1.06-1.36,2.12-2.72,3.18-4.07-1.06,1.36-2.12,2.72-3.18,4.07Z"/>
      <path class="cls-8" d="M135.4,370.26c-1.01,1.33-2.03,2.65-3.04,3.98,0,0-.19-.18-.19-.18,1.01-1.33,2.02-2.66,3.02-3.98,0,0,.21.19.21.19Z"/>
      <path class="cls-3" d="M132.49,306.01c-.67-1.06-1.33-2.13-2-3.19.67,1.06,1.33,2.13,2,3.19Z"/>
      <path class="cls-3" d="M121.27,293.07c-1.31-1.07-2.61-2.15-3.92-3.22,1.31,1.07,2.61,2.15,3.92,3.22Z"/>
      <path class="cls-17" d="M101.36,22.96c-.68-1.14-1.36-2.29-2.05-3.43.68,1.14,1.36,2.29,2.05,3.43Z"/>
      <path class="cls-17" d="M103.4,26.93c-.69-1.33-1.38-2.66-2.08-4,.69,1.33,1.38,2.66,2.08,4Z"/>
      <path class="cls-17" d="M65.42,247.93c-.74-.29-1.47-.57-2.21-.86-.04-.63-.07-1.27-.11-1.9.12-.13.25-.26.37-.39.65,1.05,1.3,2.1,1.95,3.15Z"/>
      <path class="cls-17" d="M95.41,273.84c-1.01-.67-2.03-1.34-3.04-2.01,1.01.67,2.03,1.34,3.04,2.01Z"/>
      <path class="cls-3" d="M130.54,302.8c-.77-.92-1.54-1.85-2.3-2.77.77.92,1.54,1.85,2.3,2.77Z"/>
      <path class="cls-14" d="M105.4,310.27c.58.54,1.16,1.09,1.74,1.63-.58-.54-1.16-1.09-1.74-1.63Z"/>
      <path class="cls-14" d="M108.09,312.11c.67.63,1.35,1.25,2.02,1.88-.67-.63-1.35-1.25-2.02-1.88Z"/>
      <path class="cls-23" d="M101.47,258.17c.57.66,1.15,1.33,1.72,1.99-.57-.66-1.15-1.33-1.72-1.99Z"/>
      <path class="cls-14" d="M111.28,315.22c.62.6,1.23,1.2,1.84,1.8-.62-.6-1.23-1.2-1.84-1.8Z"/>
      <path class="cls-17" d="M97.23,275.04c-.63-.4-1.26-.8-1.89-1.19.63.4,1.26.8,1.89,1.19Z"/>
      <path class="cls-3" d="M113.53,286.85c-.46-.24-.92-.49-1.38-.73.46.24.92.49,1.38.73Z"/>
      <path class="cls-7" d="M118.11,214.87c-.07-.18-.14-.36-.21-.54.13-.03.26-.06.38-.1.08.25.02.46-.17.63Z"/>
      <path class="cls-17" d="M76.19,259.08c-.58-.45-1.15-.89-1.73-1.34.58.45,1.15.9,1.73,1.34Z"/>
      <path class="cls-3" d="M128.27,300.07c-.35-.35-.69-.7-1.04-1.06.35.35.69.7,1.04,1.06Z"/>
      <path class="cls-9" d="M41.1,118.87c-.34.37-.69.75-1.03,1.12.34-.37.69-.75,1.03-1.12Z"/>
      <path class="cls-9" d="M42.09,117.86c-.35.37-.71.73-1.06,1.1.35-.37.71-.73,1.06-1.1Z"/>
      <path class="cls-9" d="M43.09,116.86c-.36.36-.71.72-1.07,1.08.36-.36.72-.72,1.07-1.08Z"/>
      <path class="cls-20" d="M107.11,151.04c-.29.29-.58.58-.87.87.29-.29.58-.58.87-.87Z"/>
      <path class="cls-6" d="M61.04,97.61c-.32.47-.64.93-.97,1.4.32-.46.64-.93.97-1.4Z"/>
      <path class="cls-17" d="M92.4,271.92c-.38-.33-.76-.65-1.14-.98.38.33.76.65,1.14.98Z"/>
      <path class="cls-2" d="M131.48,195.35c.32-.39.63-.77.95-1.16-.31.39-.63.77-.95,1.16Z"/>
      <path class="cls-17" d="M79.4,152.3c.34-.38.69-.76,1.03-1.15-.34.38-.69.76-1.03,1.15Z"/>
      <path class="cls-8" d="M132.36,374.24c-.29.38-.57.76-.86,1.14,0,0-.3-.3-.3-.3.32-.34.64-.68.97-1.02,0,0,.19.18.19.18Z"/>
      <path class="cls-17" d="M74.5,257.78c-.37-.32-.75-.65-1.12-.97.37.32.75.65,1.12.97Z"/>
      <path class="cls-19" d="M132.17,374.05c-.32.34-.64.68-.97,1.02-2.34,2.98-4.69,5.97-7.03,8.95-1.08.24-2.17.47-2.93.64,2.3-6.22,4.6-12.41,6.89-18.59,3.26-8.52,2.17-17.21,1.01-25.9,2.6-2.36,7.67-16.08,6.86-19.1-.55-2.04-1.51-3.96-2.48-6.45,1.3-.18,2.49-.34,3.68-.51,10.09,18.3,9.37,36.32-1.34,54.1-.33.55-.45,1.23-.66,1.85-1.01,1.33-2.02,2.66-3.02,3.98Z"/>
      <path class="cls-19" d="M128.19,338.12c-.31-.67-.61-1.34-.92-2.01.31.67.61,1.34.92,2.01Z"/>
      <path class="cls-19" d="M129.15,340.13c-.33-.68-.65-1.36-.98-2.04.33.68.65,1.36.98,2.04Z"/>
      <path class="cls-15" d="M53.13,222.1c.71,3.64,1.42,7.28,2.13,10.92-4.72-2.86-3.4-6.89-2.13-10.92Z"/>
      <path class="cls-15" d="M58.23,239.03c.67,1.33,1.34,2.66,2.01,3.98-3.71.21-3.17-1.73-2.01-3.98Z"/>
      <path class="cls-11" d="M114.24,100.07c-.33.66-.66,1.33-.98,2,.33-.66.66-1.33.98-2Z"/>
      <path class="cls-11" d="M113.25,102.08c-.33.66-.66,1.32-.99,1.99.33-.66.66-1.32.99-1.99Z"/>
      <path class="cls-11" d="M112.26,104.09c-.01.65-.03,1.3-.04,1.95.01-.65.03-1.3.04-1.95Z"/>
      <path class="cls-11" d="M110.25,109.08c-.33.66-.66,1.32-.99,1.99.33-.66.66-1.32.99-1.99Z"/>
      <path class="cls-11" d="M109.25,111.08c-.33.68-.66,1.36-1,2.04.33-.68.66-1.36,1-2.04Z"/>
      <path class="cls-11" d="M100.25,125.09c-.34.66-.68,1.32-1.02,1.97.34-.66.68-1.32,1.02-1.97Z"/>
      <path class="cls-15" d="M63.11,245.17c.04.63.07,1.27.11,1.9-.34-.66-.68-1.32-1.01-1.99.3.01.6.04.9.09Z"/>
      <path class="cls-11" d="M102.26,123.07c-.34.34-.68.67-1.02,1.01.34-.34.68-.67,1.02-1.01Z"/>
      <path class="cls-11" d="M111.25,108.06c-.33.34-.67.67-1,1.01.33-.34.67-.67,1-1.01Z"/>
      <path class="cls-15" d="M60.25,243.05c.33.34.67.67,1,1.01-.33-.34-.67-.67-1-1.01Z"/>
      <path class="cls-11" d="M86.26,142.11c.01.31,0,.62-.03.94-.12-.23-.26-.46-.34-.7-.01-.03.24-.16.37-.24Z"/>
      <path class="cls-11" d="M87.33,141.13c-.36.32-.71.63-1.07.95.36-.32.71-.63,1.07-.95Z"/>
      <path class="cls-11" d="M101.24,124.08c-.33.33-.66.66-.98,1,.33-.33.66-.66.98-1Z"/>
      <path class="cls-15" d="M55.26,233.04c.32.34.64.69.96,1.03-.32-.34-.64-.69-.96-1.03Z"/>
      <path class="cls-18" d="M141.25,180.06c-.68,1.01-1.35,2.03-2.03,3.04.68-1.01,1.35-2.03,2.03-3.04Z"/>
      <path class="cls-21" d="M79.92,218.1c-.21-3.35-.41-6.7-.62-10.05,6.07,2.99,12.19,5.86,18.17,9,3.61,1.89,6.93,4.36,10.56,6.21,1.49.76,3.46.58,5.22.83-.37,6.32-.74,12.64-1.11,18.96-3.45.37-6.55-.06-8.65-3.33-.47-.73-1.47-1.41-2.32-1.55-5-.78-10.03-1.39-15.06-2.06-2.06-6-4.13-12.01-6.19-18.01Z"/>
    </g>
  </g>
</svg>